<?xml version="1.0" ?><!DOCTYPE svg  PUBLIC '-//W3C//DTD SVG 1.1//EN'  'http://www.w3.org/Graphics/SVG/1.1/DTD/svg11.dtd'><svg enable-background="new 0 0 128 128" id="Слой_1" version="1.1" viewBox="0 0 128 128" xml:space="preserve" xmlns="http://www.w3.org/2000/svg" xmlns:xlink="http://www.w3.org/1999/xlink"><g><g opacity="0.3"><path d="M31.1,95.8c-3.4,0-11.9-2-18.3-20l-0.5-1.5l-1.6,0.2c-1.2,0.1-2.1-0.2-2.7-1c-0.5-0.7-0.6-1.7-0.3-2.5    c0.3-0.6,0.9-1,1.8-1.1l-0.1-1.5h29.5v-4H7.5v-1l3.1-0.9v-3.1c0-6.9,3.5-13.4,9.2-17.1v7.8h4V38.9c0-0.1,0.1-0.2,0.2-0.2h10.4v-4    H24.1c-1.9,0-3.5,1.2-4,3C11.9,41.8,6.6,50.2,6.6,59.5v0.1l-3.1,0.9v8h1.1C4.4,68.7,4.2,69,4,69.3c-1,2.1-0.7,4.6,0.6,6.5    c1.1,1.6,2.8,2.5,4.8,2.6c3.9,10.3,8.6,15.6,12.8,18.4l-15,7.2c-3.2,1.5-5.3,4.8-5.3,8.4V126h25v-4H15.5v-1.7h-4v1.7H6v-9.5    c0-2,1.2-3.9,3-4.8l13.2-6.4c0.6,1.9,1.9,3.6,3.6,4.8l2.2-3.3c-1.4-0.9-2.2-2.4-2.3-4c2.2,0.8,4,1.1,5.3,1.1    c10.9,0,17.6-12.2,20-17.4l-3.6-1.7C41.2,94.3,33.9,95.8,31.1,95.8z" fill="#3EBBC4"/><path d="M120.7,104.1l-15-7.2c4.2-2.8,8.9-8.2,12.8-18.4c2-0.2,3.7-1.1,4.8-2.6c1.4-1.9,1.6-4.4,0.6-6.5    c-0.1-0.3-0.3-0.6-0.5-0.9h1.1v-8l-3.1-0.9v-0.1c0-9.2-5.3-17.7-13.5-21.8c-0.6-1.7-2.1-3-4-3H93.5v4h10.4c0.1,0,0.2,0.1,0.2,0.2    v11.2h4v-7.8c5.7,3.7,9.2,10.2,9.2,17.1v3.1l3.1,0.9v1H89.1v4h29.5l-0.1,1.5c0.9,0.1,1.5,0.4,1.8,1.1c0.3,0.7,0.2,1.8-0.3,2.5    c-0.6,0.8-1.5,1.1-2.7,1l-1.6-0.2l-0.5,1.5c-6.5,18.1-15,20-18.3,20c-2.8,0-10.1-1.5-16.3-15.1l-3.6,1.7c2.4,5.2,9.1,17.4,20,17.4    c1.3,0,3.1-0.2,5.3-1.1c-0.1,1.6-1,3.1-2.3,4l2.2,3.3c1.7-1.2,3-2.9,3.6-4.8l13.2,6.4c1.8,0.9,3,2.8,3,4.8v9.5h-5.5v-1.7h-4v1.7    H101v4h25v-13.5C126,108.9,123.9,105.6,120.7,104.1z" fill="#3EBBC4"/></g><path d="M96.2,97.5L77,88.2v-2.8c5.3-4,11.1-11.3,16-24.3c2.6-0.1,4.8-1.3,6.3-3.4c1.9-2.6,2.2-6.2,0.9-9   c-0.9-1.9-2.5-3.3-4.5-3.9C95.2,21.6,83.4,7.8,64,7.8c-19.4,0-31.1,13.7-31.7,36.9c0,0,0,0,0,0.1c-2,0.6-3.6,2-4.5,3.9   c-1.3,2.8-1,6.4,0.9,9c1.5,2.1,3.7,3.2,6.3,3.4c4.9,13,10.7,20.3,16,24.3v2.8l-19.2,9.2c-4.1,2-6.8,6.2-6.8,10.8V126h31.7h14.5H103   v-17.7C103,103.7,100.3,99.5,96.2,97.5z M96.6,50.3c0.7,1.5,0.5,3.6-0.5,5c-0.3,0.5-0.9,1-1.6,1.3c0.6-2.4,1-5.2,1.2-7.6   C96,49.4,96.3,49.8,96.6,50.3z M64,11.8c17.2,0,27.3,12.1,27.7,33.2c-11.6,2.6-21.5-2.5-30.2-7c-7.3-3.8-13.6-7.1-19.5-4.9   c-1.8,0.7-3.4,1.8-4.9,3.5C39.7,20.7,49.2,11.8,64,11.8z M31.9,55.3c-1-1.4-1.2-3.5-0.5-5c0.2-0.5,0.6-0.9,1-1.2   c0.2,2.8,0.7,5.3,1.3,7.6C32.9,56.4,32.3,55.9,31.9,55.3z M38.3,58.4c-1-3.6-2-7.3-2-12c0-0.3,0-0.6,0-0.9c2.1-4.8,4.4-7.7,7.1-8.7   c4.2-1.6,9.8,1.3,16.3,4.7c7.2,3.7,15.7,8.2,25.6,8.2c2,0,4.1-0.2,6.3-0.6c-0.3,3-0.9,6.8-1.8,9.3c-9,25.1-21,27.8-25.8,27.8   C59.3,86.2,47.3,83.5,38.3,58.4z M64,90.2c2.1,0,5.3-0.4,9-2.3v2.2l-6.6,6.3l-0.1,0.1c-1.2,1.3-3.4,1.3-4.6,0L55,90.1v-2.2   C58.7,89.8,61.9,90.2,64,90.2z M42,122v-3h-4v3h-9v-13.7c0-3.1,1.8-5.9,4.5-7.2l18-8.7l7.2,6.9c0.3,0.3,0.6,0.6,1,0.9L57.2,122H42z    M61.2,122l2.4-20.5c0.1,0,0.2,0,0.3,0s0.2,0,0.3,0l2.4,20.5H61.2z M99,122h-9v-3h-4v3H70.8l-2.6-21.8c0.4-0.3,0.7-0.5,1-0.9   l7.2-6.9l18,8.7c2.8,1.3,4.5,4.2,4.5,7.2V122z" fill="#3EBBC4"/></g></svg>